<?xml version="1.0" encoding="UTF-8"?><svg id="a" xmlns="http://www.w3.org/2000/svg" viewBox="0 0 946 946"><circle id="b" cx="473" cy="473" r="460" stroke="#fff" stroke-miterlimit="10" stroke-width="26"/><circle id="c" cx="473.5" cy="471.5" r="405" stroke="#fff" stroke-miterlimit="10" stroke-width="45"/><path id="d" d="m473,819c-190.91,0-348-157.09-348-348,0-190.91,157.09-348,348-348s348,157.09,348,348-157.09,348-348,348Z" stroke="#fff" stroke-linecap="round" stroke-miterlimit="10" stroke-width="26"/><g id="e"><path d="m806.42,571.49s-.2-89.99-95.86-43.75c-95.66,46.24-229.59,111.47-237.56-8.44" fill="none" stroke="#fff" stroke-miterlimit="10" stroke-width="13"/><circle cx="472.5" cy="471.5" r="48" fill="#fff" stroke="#fff" stroke-miterlimit="10" stroke-width="3"/><path d="m818.22,427.03s-36.78-82.13-105.37-.98c-68.59,81.15-164.4,195.22-220.45,88.92" fill="none" stroke="#fff" stroke-miterlimit="10" stroke-width="13"/><path d="m770.24,290.26s-67-60.07-96.65,41.96c-29.65,102.03-70.78,245.21-165.23,170.9" fill="none" stroke="#fff" stroke-miterlimit="10" stroke-width="13"/><path d="m670.78,184.82s-85.64-27.62-71.23,77.65c14.41,105.27,35.07,252.8-81.43,223.33" fill="none" stroke="#fff" stroke-miterlimit="10" stroke-width="13"/><path d="m537.04,128.96s-89.47,9.6-33.49,99.91c55.98,90.3,134.86,216.68,16.44,237.14" fill="none" stroke="#fff" stroke-miterlimit="10" stroke-width="13"/><path d="m392.13,132.32s-77.83,45.16,10.04,104.89c87.87,59.73,211.33,143.09,111.47,209.95" fill="none" stroke="#fff" stroke-miterlimit="10" stroke-width="13"/><path d="m261.13,194.33s-52.73,72.92,51.83,91.74c104.57,18.82,251.26,44.77,187.23,146.46" fill="none" stroke="#fff" stroke-miterlimit="10" stroke-width="13"/><path d="m166.67,304.27s-18.52,88.06,84.67,62.72c103.18-25.34,247.75-61.3,230.62,57.64" fill="none" stroke="#fff" stroke-miterlimit="10" stroke-width="13"/><path d="m125.09,443.12s18.9,87.98,102.86,22.86c83.96-65.12,201.4-156.77,234.12-41.14" fill="none" stroke="#fff" stroke-miterlimit="10" stroke-width="13"/><path d="m143.58,586.88s53.05,72.69,103.27-20.95c50.21-93.63,120.22-225.13,197.15-132.81" fill="none" stroke="#fff" stroke-miterlimit="10" stroke-width="13"/><path d="m218.95,710.69s78.03,44.82,85.82-61.14c7.79-105.96,18.26-254.57,126.09-201.52" fill="none" stroke="#fff" stroke-miterlimit="10" stroke-width="13"/><path d="m338.15,793.14s89.51,9.21,53.53-90.76c-35.98-99.97-86.86-239.98,33.22-235.38" fill="none" stroke="#fff" stroke-miterlimit="10" stroke-width="13"/><path d="m480.59,819.97s85.52-27.99,11.99-104.69c-73.53-76.69-176.96-183.91-65.39-228.54" fill="none" stroke="#fff" stroke-miterlimit="10" stroke-width="13"/><path d="m621.63,786.56s66.74-60.36-31.63-100.51c-98.37-40.15-236.47-96.03-152.69-182.19" fill="none" stroke="#fff" stroke-miterlimit="10" stroke-width="13"/><path d="m473,519.3c7.97,119.91,141.9,54.67,237.56,8.44,95.66-46.24,95.86,43.75,95.86,43.75" fill="none" stroke="#fff" stroke-miterlimit="10" stroke-width="13"/><path d="m453.51,515.37c-41.49,112.79,107.39,107.66,213.59,104.33,106.2-3.33,69.78,78.96,69.78,78.96" fill="none" stroke="#fff" stroke-miterlimit="10" stroke-width="13"/></g></svg>