<?xml version="1.0" encoding="UTF-8"?><svg id="a" xmlns="http://www.w3.org/2000/svg" viewBox="0 0 3141.399932861328125 947.1307373046875"><g id="b"><g id="c"><path id="d" d="M874.750457763671875,822.13079833984375c-190.90716552734375,0-348-157.09283447265625-348-348h-114c0,254.05096435546875,205.94903564453125,459.99993896484375,460,459.99993896484375l2-111.99993896484375Z" fill="#802823" stroke="#dd9350" stroke-linejoin="bevel" stroke-width="26"/><path id="e" d="M874.250396728515625,879.6307373046875c-223.67529296875,0-405-181.32464599609375-405-404.999969482421875" fill="none" stroke="#dd9350" stroke-linejoin="bevel" stroke-width="45"/></g></g><g id="f"><circle id="g" cx="473.000007629394531" cy="473" r="460.000011444091456" fill="#802823" stroke="#dd9350" stroke-miterlimit="10" stroke-width="26"/><circle id="h" cx="473.500007629394531" cy="471.5" r="405.000011444091456" fill="#802823" stroke="#dd9350" stroke-miterlimit="10" stroke-width="45"/><path id="i" d="M473,819c-190.907135009765625,0-348-157.09283447265625-348-348,.000007629394531-190.907135009765625,157.092864990234375-348,348-348s348.000030517578125,157.09283447265625,348.000030517578125,348-157.09283447265625,348-348,348h-.000030517578125Z" fill="#802923" stroke="#dd9350" stroke-linecap="round" stroke-miterlimit="10" stroke-width="26"/><g id="j"><path d="M806.418548583984375,571.4901123046875s-.19586181640625-89.9874267578125-95.85784912109375-43.75079345703125-229.5889892578125,111.4727783203125-237.560699462890625-8.4368896484375" fill="none" stroke="#dd9350" stroke-miterlimit="10" stroke-width="13"/><circle cx="472.500007629394531" cy="471.5" r="47.999999380962372" transform="translate(-68.597830385539623 862.37291656667901) rotate(-80.78252695236263)" fill="#dd9350" stroke="#dd9350" stroke-miterlimit="10" stroke-width="3"/><path d="M818.219390869140625,427.028594970703125s-36.78009033203125-82.127960205078125-105.36553955078125-.979461669921875-164.39990234375,195.21771240234375-220.4541015625,88.91717529296875" fill="none" stroke="#dd9350" stroke-miterlimit="10" stroke-width="13"/><path d="M770.242279052734375,290.256591796875s-67.0047607421875-60.06781005859375-96.65460205078125,41.96124267578125-70.78460693359375,245.20770263671875-165.22894287109375,170.89666748046875" fill="none" stroke="#dd9350" stroke-miterlimit="10" stroke-width="13"/><path d="M670.782745361328125,184.823211669921875s-85.6436767578125-27.621383666992188-71.231201171875,77.646484375c14.4124755859375,105.267852783203125,35.07000732421875,252.799102783203125-81.4342041015625,223.3265380859375" fill="none" stroke="#dd9350" stroke-miterlimit="10" stroke-width="13"/><path d="M537.038360595703125,128.9588623046875s-89.4739990234375,9.601028442382812-33.49127197265625,99.905929565429688c55.98272705078125,90.304885864257812,134.8607177734375,216.679214477539062,16.44122314453125,237.141220092773438" fill="none" stroke="#dd9350" stroke-miterlimit="10" stroke-width="13"/><path d="M392.13470458984375,132.322982788085938s-77.833465576171875,45.163345336914062,10.03961181640625,104.890731811523438,211.332733154296875,143.093505859375,111.473785400390625,209.952056884765625" fill="none" stroke="#dd9350" stroke-miterlimit="10" stroke-width="13"/><path d="M261.126922607421875,194.333892822265625s-52.734832763671875,72.916473388671875,51.83453369140625,91.738983154296875c104.56939697265625,18.822479248046875,251.263427734375,44.765655517578125,187.2315673828125,146.46026611328125" fill="none" stroke="#dd9350" stroke-miterlimit="10" stroke-width="13"/><path d="M166.667495727539062,304.26934814453125s-18.517868041992188,88.06170654296875,84.66680908203125,62.7247314453125c103.184677124023438-25.337005615234375,247.748397827148438-61.3026123046875,230.615310668945312,57.6441650390625" fill="none" stroke="#dd9350" stroke-miterlimit="10" stroke-width="13"/><path d="M125.089271545410156,443.1204833984375s18.901008605957031,87.98028564453125,102.859428405761719,22.864776611328125c83.958404541015625-65.115509033203125,201.395416259765625-156.771087646484375,234.12353515625-41.13916015625" fill="none" stroke="#dd9350" stroke-miterlimit="10" stroke-width="13"/><path d="M143.581512451171875,586.87872314453125s53.051742553710938,72.68621826171875,103.266693115234375-20.94866943359375c50.2149658203125-93.634918212890625,120.219329833984375-225.13238525390625,197.149688720703125-132.809112548828125" fill="none" stroke="#dd9350" stroke-miterlimit="10" stroke-width="13"/><path d="M218.946762084960938,710.6868896484375s78.029342651367188,44.8240966796875,85.818222045898438-61.139892578125c7.788909912109375-105.96405029296875,18.2562255859375-254.5662841796875,126.086883544921875-201.51519775390625" fill="none" stroke="#dd9350" stroke-miterlimit="10" stroke-width="13"/><path d="M338.153656005859375,793.13751220703125s89.51495361328125,9.21148681640625,53.531005859375-90.759521484375-86.863525390625-239.98333740234375,33.222503662109375-235.37744140625" fill="none" stroke="#dd9350" stroke-miterlimit="10" stroke-width="13"/><path d="M480.59027099609375,819.97406005859375s85.522613525390625-27.993896484375,11.98779296875-104.68597412109375-176.96380615234375-183.9051513671875-65.3863525390625-228.540802001953125" fill="none" stroke="#dd9350" stroke-miterlimit="10" stroke-width="13"/><path d="M621.628021240234375,786.5562744140625s66.74261474609375-60.35888671875-31.62823486328125-100.51129150390625c-98.370880126953125-40.15234375-236.465423583984375-96.02801513671875-152.6893310546875-182.1873779296875" fill="none" stroke="#dd9350" stroke-miterlimit="10" stroke-width="13"/><path d="M473,519.30242919921875c7.97174072265625,119.90966796875,141.898712158203125,54.67352294921875,237.560699462890625,8.4368896484375s95.85784912109375,43.75079345703125,95.85784912109375,43.75079345703125" fill="none" stroke="#dd9350" stroke-miterlimit="10" stroke-width="13"/><path d="M453.5137939453125,515.373046875c-41.4891357421875,112.78533935546875,107.393157958984375,107.66217041015625,213.590911865234375,104.3321533203125,106.19769287109375-3.330078125,69.775390625,78.95721435546875,69.775390625,78.95721435546875" fill="none" stroke="#dd9350" stroke-miterlimit="10" stroke-width="13"/></g></g><g id="k"><path d="M2327.304473876953125,607.4947509765625c0-128.89093017578125-100.10205078125-234.40179443359375-226.8037109375-243.03009033203125-143.14453125-9.748077392578125-260.396240234375,101.748260498046875-260.396240234375,245.22430419921875v320.15576171875h-79.800048828125v-319.5205078125c0-187.62164306640625,158.8099365234375-337.348602294921875,345.927490234375-323.60394287109375,166.66162109375,12.2420654296875,298.07275390625,151.3369140625,298.07275390625,321.12445068359375l-77-.3499755859375h-.000244140625Z" fill="#802923" fill-rule="evenodd" stroke="#dd9350" stroke-linecap="round" stroke-linejoin="bevel" stroke-width="18"/><path id="l" d="M1799.854644775390625,929.8447265625v-322c0-156.572723388671875,126.92724609375-283.499969482421875,283.4998779296875-283.499969482421875,156.57275390625,0,283.5,126.92724609375,283.5,283.499969482421875h0" fill="none" stroke="#dd9350" stroke-miterlimit="10" stroke-width="31"/></g><g id="m"><path id="n" d="M1314.659088134765625,605.61773681640625v79.1025390625h243.25c78.75,0,78.75-78.7525634765625,78.75-78.7525634765625,0-177.835693359375-144.164306640625-320.949981689453125-322-320.949981689453125s-322,144.164306640625-322,322.000030517578125c0,177.835693359375,144.164306640625,322,322,322h322l-78.75-79.800048828125h-243.5999755859375c-134.53662109375,0-243.60009765625-109.06341552734375-243.60009765625-243.5999755859375s109.0634765625-243.600006103515625,243.60009765625-243.600006103515625c134.5364990234375,0,243.5999755859375,109.063446044921875,243.5999755859375,243.600006103515625h-243.25Z" fill="#802923" fill-rule="evenodd" stroke="#dd9350" stroke-linecap="round" stroke-linejoin="bevel" stroke-width="18"/><path id="o" d="M1593.082550048828125,889.46771240234375h-278.4234619140625c-156.57275390625,0-283.5-126.92724609375-283.5-283.5,0-156.57269287109375,126.92724609375-283.499969482421875,283.5-283.499969482421875s283.5,126.927276611328125,283.5,283.499969482421875c0,0,0,39.2012939453125-40.25,39.2012939453125h-243.25" fill="none" stroke="#dd9350" stroke-miterlimit="10" stroke-width="31"/><rect id="p" x="1583.990386962890625" y="890.3880615234375" width="18.248779296875" height="14.70965576171875" fill="#dd9350"/></g><g id="q"><path id="r" d="M2488.399932861328125,606.26025390625c0-177.835693359375,144.164306640625-322,322-322s322,144.164306640625,322,322v322h-77v-322.3499755859375c0-134.53662109375-109.0634765625-243.60009765625-243.60009765625-243.60009765625s-243.60009765625,109.0634765625-243.60009765625,243.60009765625" fill="#802923" fill-rule="evenodd" stroke="#dd9350" stroke-linejoin="bevel" stroke-width="18"/><path id="s" d="M2527.949981689453125,606.26025390625c0-156.57275390625,126.92724609375-283.5,283.5-283.5s283.5,126.92724609375,283.5,283.5v322" fill="none" stroke="#dd9350" stroke-miterlimit="10" stroke-width="32"/><path id="t" d="M2568.199981689453125,284.26025390625V928.26025390625h-79.800048828125V284.26025390625h79.800048828125Z" fill="#802923" fill-rule="evenodd" stroke="#dd9350" stroke-linejoin="bevel" stroke-width="18"/><path id="u" d="M2527.949981689453125,928.26025390625V284.26025390625" fill="none" stroke="#dd9350" stroke-miterlimit="10" stroke-width="31"/></g></svg>