<?xml version="1.0" encoding="UTF-8"?><svg xmlns="http://www.w3.org/2000/svg" viewBox="0 0 3141.399967023695353 947.130752690089139"><g id="a"><g id="b"><path id="c" d="M874.750402615951316,822.130787912421511c-190.90716552734375,0-348-157.09283447265625-348-348l-114.000009001571016-.000008369624993c0,254.05097007765653,205.94901515870697,459.999973147292621,460.00000014897887,459.999973147292621l2.000008852592146-111.999964777667628Z" fill="#802823" stroke="#dd9350" stroke-linejoin="bevel" stroke-width="26"/><g id="d"><g><path d="M874.25040876301864,879.630728601057854c-2.33819580078125,0-4.6717529296875-.019775390625-7.00048828125-.05926513671875" fill="none" stroke="#dd9350" stroke-linejoin="bevel" stroke-width="45"/><path d="M853.42875348958114,879.104788659651604c-209.39996337890625-10.6044921875-376.843505859375-180.25323486328125-383.943817138671875-390.55963134765625" fill="none" stroke="#dd9350" stroke-dasharray="0 0 13.826617240905762 13.826617240905762" stroke-linejoin="bevel" stroke-width="45"/><path d="M469.30967389973739,481.631277917464104c-.039459228515625-2.32879638671875-.05926513671875-4.662322998046875-.05926513671875-7.00048828125" fill="none" stroke="#dd9350" stroke-linejoin="bevel" stroke-width="45"/></g></g></g></g><g id="e"><circle id="f" cx="472.999973147298078" cy="473.000000148966592" r="459.999986648135859" fill="#802823" stroke="#dd9350" stroke-miterlimit="10" stroke-width="26"/><g id="g"><circle cx="473.499973118108301" cy="471.500000148485015" r="404.999988244551503" fill="#802823"/><circle cx="473.499970072833094" cy="471.499993203718986" r="404.999985694884799" fill="none" stroke="#dd9350" stroke-dasharray="0 0 13.982368469238281 13.982368469238281" stroke-miterlimit="10" stroke-width="45"/></g><path id="h" d="M472.99998151692489,818.999991296370354c-190.907135009765625,0-347.999992370604559-157.09283447265625-347.999984741210938-348,.000007629394531-190.907135009765625,157.092849731445312-347.999984741210938,347.999984741210938-347.999984741210938,190.90716552734375,0,348,157.092849731445312,348,347.999984741210938,0,190.90716552734375-157.09283447265625,348-348,348Z" fill="#802923" stroke="#dd9350" stroke-linecap="round" stroke-miterlimit="10" stroke-width="26"/><g id="i"><path d="M806.418517357853489,571.490110413444199s-.195855176036275-89.987441032344577-95.857841213723077-43.750811775802504c-95.661986037694078,46.236629256554806-229.588975287017092,111.472778702178402-237.560703014183673-8.436863415743574" fill="none" stroke="#dd9350" stroke-miterlimit="10" stroke-width="13"/><circle cx="472.499973176302774" cy="471.500000148300842" r="47.999998606765239" fill="#dd9350" stroke="#dd9350" stroke-miterlimit="10" stroke-width="3"/><path d="M818.219381823530057,427.028595376747035s-36.780110170955595-82.127956505713883-105.365552689534525-.979456492995268c-68.585442518584387,81.148500012716795-164.399904288278776,195.21770526817545-220.454082424495937,88.91719036885388" fill="none" stroke="#dd9350" stroke-miterlimit="10" stroke-width="13"/><path d="M770.242219739146094,290.256590354400032s-67.004749948544486-60.067802191042574-96.654602874641569,41.961255681093462c-29.649852926106178,102.029057872141493-70.78459635348554,245.207717015580783-165.228948220263192,170.896654066898918" fill="none" stroke="#dd9350" stroke-miterlimit="10" stroke-width="13"/><path d="M670.782718323554946,184.823217428342105s-85.643659741637748-27.621379179276119-71.231194144165784,77.646485542289156c14.412465597464688,105.267864721570731,35.070011348008848,252.799086851198808-81.434227812485915,223.326533731082236" fill="none" stroke="#dd9350" stroke-miterlimit="10" stroke-width="13"/><path d="M537.038328931748765,128.95886460858128s-89.4740027180178,9.601031224674443-33.491264831776789,99.905932657804442c55.982737886235554,90.304901433137275,134.860695486719123,216.679197965102503,16.441210390012202,237.1412268574677" fill="none" stroke="#dd9350" stroke-miterlimit="10" stroke-width="13"/><path d="M392.134671517897004,132.322986008826774s-77.833477779520763,45.163336107340001,10.039608428292922,104.890736400851893c87.873086207815504,59.727400293520986,211.332740206133167,143.093507284234875,111.473813952528872,209.95204750209632" fill="none" stroke="#dd9350" stroke-miterlimit="10" stroke-width="13"/><path d="M261.126904855846078,194.333894476922069s-52.734837438760223,72.916489881459711,51.834542184229576,91.738978918789144c104.569379622991619,18.822489037340347,251.263434248294288,44.765649231616408,187.231582375930884,146.460251781184525" fill="none" stroke="#dd9350" stroke-miterlimit="10" stroke-width="13"/><path d="M166.667461968386306,304.269340587921761s-18.517864624392132,88.06172013027026,84.666812694983491,62.724718560100882c103.18467731938108-25.337001570158463,247.748397854735231-61.302596255869503,230.615309262831943,57.644147979113768" fill="none" stroke="#dd9350" stroke-miterlimit="10" stroke-width="13"/><path d="M125.089238666936581,443.12048697813043s18.901015212872153,87.980278953800735,102.859422117755457,22.864784526803305c83.958406904888761-65.115494426991972,201.395412750965988-156.771065934709441,234.123554106121446-41.139152688624563" fill="none" stroke="#dd9350" stroke-miterlimit="10" stroke-width="13"/><path d="M143.581487486217156,586.878709014972628s53.051737809680162,72.68624827133317,103.266703008850527-20.948678471006133c50.21496519917855-93.634926742337484,120.219331164631512-225.132394094543997,197.149709501025427-132.809120119434738" fill="none" stroke="#dd9350" stroke-miterlimit="10" stroke-width="13"/><path d="M218.946730608742655,710.68690410722229s78.029332979805986,44.824104929630266,85.818232802175771-61.139924648610759c7.788899822382518-105.964029578235568,18.25623506276861-254.566286054028751,126.086889076244915-201.515184149906418" fill="none" stroke="#dd9350" stroke-miterlimit="10" stroke-width="13"/><path d="M338.153632827625188,793.137510562497482s89.514947604246117,9.211466631819349,53.531010510672786-90.759522416283289c-35.983937093562417-99.970989048108095-86.863529933960308-239.983354495150706,33.222500067977307-235.377442134848025" fill="none" stroke="#dd9350" stroke-miterlimit="10" stroke-width="13"/><path d="M480.590237789672756,819.974069485244399s85.522614571014856-27.993917930092721,11.987790188433792-104.685974234693276c-73.534824382575607-76.692056304607831-176.963801475558284-183.905120766063192-65.386361018656316-228.540802040035487" fill="none" stroke="#dd9350" stroke-miterlimit="10" stroke-width="13"/><path d="M621.627962502403534,786.556296035490959s66.742644530724647-60.358899765398746-31.628227962928577-100.511270066723228c-98.370872493648676-40.152370301331757-236.465424078087381-96.028020932744766-152.68932626935748-182.187381046720475" fill="none" stroke="#dd9350" stroke-miterlimit="10" stroke-width="13"/><path d="M472.999973147298078,519.302435221898122c7.971727770225698,119.909642115055249,141.898716996129224,54.673492621330297,237.560703017214109,8.436863330418419,95.66198602107761-46.236629290910059,95.857841229433689,43.750811741372672,95.857841229433689,43.750811741372672" fill="none" stroke="#dd9350" stroke-miterlimit="10" stroke-width="13"/><path d="M453.513758599650828,515.37304703769405c-41.489133320241308,112.785339391992238,107.39318220743553,107.662170445022639,213.590929914345907,104.332153354100228,106.197686671755946-3.330078126078661,69.775386551829797,78.957214381038284,69.775386551829797,78.957214381038284" fill="none" stroke="#dd9350" stroke-miterlimit="10" stroke-width="13"/></g></g><g id="j"><path d="M2327.304527492964553,607.494769813509265c0-128.890937131827741-100.102044181810925-234.401778257276419-226.803711005795776-243.030100664282145-143.144551304974812-9.748074910343348-260.396271633871947,101.748251115089261-260.396271339817758,245.224338086962234l.000000656164048,320.155738163257411h-79.800048828119543l-.000000518157321-319.520484835687967c-.000000304260539-187.62162417212312,158.809914039946307-337.348605658685301,345.927412973565879-323.603953978392383,166.66172157717665,12.242079573376031,298.072618062160473,151.336925493967101,298.072618062160473,321.124438814080349l-77-.3499755859375Z" fill="#802923" fill-rule="evenodd" stroke="#dd9350" stroke-linecap="round" stroke-linejoin="bevel" stroke-width="18"/><g id="k"><g><path d="M1799.85459577473739,929.844717858870354v-6.9951171875" fill="none" stroke="#dd9350" stroke-miterlimit="10" stroke-width="31"/><path d="M1799.85459577473739,908.750967858870354v-300.90625c0-156.572723388671875,126.92724609375-283.499969482421875,283.4998779296875-283.499969482421875,151.859619140625,0,275.831787109375,119.40081787109375,283.15771484375,269.443878173828125" fill="none" stroke="#dd9350" stroke-dasharray="0 0 14.102079391479492 14.102079391479492" stroke-miterlimit="10" stroke-width="31"/><path d="M2366.76975690754989,600.844229577620354c.056396484375,2.32666015625,.084716796875,4.6602783203125,.084716796875,7.00048828125" fill="none" stroke="#dd9350" stroke-miterlimit="10" stroke-width="31"/></g></g></g><g id="l"><path id="m" d="M1314.659039134114209,605.617728112776604v79.102517089842877h243.249993013290805c78.750006986709195,0,78.750006986709195-78.752541503905377,78.750006986709195-78.752541503905377,0-177.835693359375-144.164306640628638-320.949981689453125-322-320.949981689453125-177.835693359378638,0-322.000000000001819,144.164306640625-322.000000000001819,322.000030517578125,0,177.835693359375,144.164306640623181,322,322.000000000001819,322h322l-78.75-79.800048828125h-243.599975585939319c-134.53662109375,0-243.60009765625-109.06341552734375-243.60009765625-243.5999755859375s109.0634765625-243.600006103515625,243.60009765625-243.600006103515625c134.536499023439319,0,243.599975585939319,109.063446044921875,243.599975585939319,243.600006103515625h-243.25Z" fill="#802923" fill-rule="evenodd" stroke="#dd9350" stroke-linecap="round" stroke-linejoin="bevel" stroke-width="18"/><g id="n"><g><path d="M1593.08250104817489,889.467703698714104h-6.9959716796875" fill="none" stroke="#dd9350" stroke-miterlimit="10" stroke-width="31"/><path d="M1572.17356550129989,889.467703698714104h-257.5145263671875c-156.57275390625,0-283.5-126.92724609375-283.5-283.5,0-156.57269287109375,126.92724609375-283.499969482421875,283.5-283.499969482421875s283.5,126.927276611328125,283.5,283.499969482421875c0,0,0,39.2012939453125-40.25,39.2012939453125h-229.29150390625" fill="none" stroke="#dd9350" stroke-dasharray="0 0 13.917435646057129 13.917435646057129" stroke-miterlimit="10" stroke-width="31"/><path d="M1321.65513288411239,645.168997644026604h-6.99609375" fill="none" stroke="#dd9350" stroke-miterlimit="10" stroke-width="31"/></g></g><rect id="o" x="1583.990391536743118" y="890.388047823889792" width="18.2488111545008" height="14.709647779083753" fill="#dd9350"/></g><g id="p"><path id="q" d="M2488.399936506124504,606.260245202620354c0-177.835693359375,144.164306640621362-322,322-322,177.835723876949487,0,322.000030517570849,144.164306640625,322.000030517570849,322v322h-77v-322.3499755859375c0-134.53662109375-109.063446044920056-243.600097656249091-243.600006103510168-243.600097656249091-134.536560058599207,0-243.599975585939319,109.063476562499091-243.599975585939319,243.600097656249091" fill="#802923" fill-rule="evenodd" stroke="#dd9350" stroke-linejoin="bevel" stroke-width="18"/><g id="r"><g><path d="M2527.94993268879989,606.260245202620354c0-2.3402099609375,.0283203125-4.673828125,.084716796875-7.00048828125" fill="none" stroke="#dd9350" stroke-miterlimit="10" stroke-width="32"/><path d="M2528.72239362629989,585.171194909651604c10.789306640625-146.724090576171875,133.248291015625-262.41094970703125,282.7275390625-262.41094970703125,156.57275390625,0,283.5,126.92724609375,283.5,283.5v307.95849609375" fill="none" stroke="#dd9350" stroke-dasharray="0 0 14.102081298828125 14.102081298828125" stroke-miterlimit="10" stroke-width="32"/><path d="M3094.94993268879989,921.265128015120354v6.9951171875" fill="none" stroke="#dd9350" stroke-miterlimit="10" stroke-width="32"/></g></g><path id="s" d="M2568.199985334245866,284.260245202620354V928.260245202620354h-79.800048828121362V284.260245202620354h79.800048828121362Z" fill="#802923" fill-rule="evenodd" stroke="#dd9350" stroke-linejoin="bevel" stroke-width="18"/><g id="t"><g><path d="M2527.94993268879989,928.260245202620354v-6.9962158203125" fill="none" stroke="#dd9350" stroke-miterlimit="10" stroke-width="31"/><path d="M2527.94993268879989,907.268668054182854V298.263724206526604" fill="none" stroke="#dd9350" stroke-dasharray="0 0 14 14" stroke-miterlimit="10" stroke-width="31"/><path d="M2527.94993268879989,291.259085534651604v-6.99884033203125" fill="none" stroke="#dd9350" stroke-miterlimit="10" stroke-width="31"/></g></g></g></svg>