<?xml version="1.0" encoding="UTF-8"?><svg id="a" xmlns="http://www.w3.org/2000/svg" viewBox="0 0 35.08 18.42"><path d="m12.06,7.43c0,.59-.1,1.17-.29,1.74-.19.57-.46,1.08-.8,1.54-.34.46-.74.85-1.2,1.18-.46.32-.95.54-1.48.65v.03h4.34v.3h-6.09c-.74,0-1.45-.13-2.11-.38-.66-.26-1.24-.62-1.74-1.1-.5-.48-.89-1.05-1.18-1.72-.29-.67-.43-1.41-.43-2.24s.14-1.54.41-2.22.66-1.26,1.15-1.75,1.06-.87,1.73-1.15c.67-.28,1.4-.41,2.19-.41s1.52.14,2.19.42c.67.28,1.25.67,1.73,1.16.49.49.87,1.08,1.15,1.75.28.67.41,1.41.41,2.2Zm-.33,0c0-.71-.13-1.39-.38-2.02-.25-.63-.61-1.19-1.06-1.67-.46-.48-1-.85-1.64-1.13-.63-.28-1.33-.41-2.08-.41s-1.45.14-2.08.41c-.63.27-1.18.64-1.63,1.12-.46.47-.81,1.03-1.06,1.67-.25.64-.38,1.32-.38,2.04s.13,1.38.38,2,.61,1.17,1.07,1.63,1,.83,1.64,1.1c.63.27,1.33.4,2.08.4s1.49-.14,2.12-.43c.63-.29,1.17-.67,1.62-1.15.45-.48.79-1.03,1.03-1.64.24-.62.36-1.26.36-1.92Z"/><path d="m14.57,9.33c0,.42.06.84.19,1.25.13.41.32.78.57,1.11.26.33.58.59.97.79.39.2.85.3,1.39.3s1.02-.11,1.45-.32.79-.53,1.1-.94l.24.21c-.34.44-.74.78-1.2,1.01-.46.23-.99.35-1.59.35-.51,0-.98-.09-1.4-.28-.42-.19-.79-.45-1.09-.78-.31-.33-.54-.73-.71-1.19-.17-.46-.25-.96-.25-1.51s.09-1,.26-1.45c.17-.44.41-.82.7-1.15.3-.32.65-.57,1.05-.75s.84-.26,1.3-.26c.54,0,1.02.1,1.42.29.4.19.74.44,1,.75s.47.67.6,1.06c.13.4.2.8.2,1.21v.29h-6.19Zm5.86-.29c-.01-.45-.09-.86-.23-1.24-.15-.37-.34-.69-.6-.96-.25-.27-.55-.47-.9-.62s-.74-.22-1.17-.22c-.52,0-.97.11-1.34.32-.37.22-.68.48-.91.8-.24.32-.41.65-.52.99-.11.35-.17.65-.17.91h5.85Z"/><path d="m24.58,6.2c.44-.32.92-.47,1.43-.47h.13s.09,0,.14.02v.29s-.08-.02-.11-.02h-.08c-.44,0-.82.1-1.13.29s-.57.45-.77.77-.35.67-.44,1.06-.14.77-.14,1.15v3.59h-.33v-5.18c0-.11,0-.25,0-.41s0-.32-.01-.49c0-.17-.01-.32-.02-.47-.01-.15-.02-.28-.03-.38h.33c.01.1.02.23.02.38,0,.15,0,.31.01.49s0,.35.01.51c0,.17,0,.31,0,.44h.03c.2-.72.52-1.24.96-1.56Z"/><path d="m28.83,6.9c.19-.25.41-.46.65-.64.24-.18.5-.31.78-.4s.57-.14.87-.14c.48,0,.88.09,1.21.26.32.17.58.4.77.68.19.28.33.6.41.95s.12.71.12,1.07v4.19h-.33v-4.16c0-.28-.03-.58-.09-.9-.06-.32-.17-.61-.34-.87-.17-.26-.39-.48-.67-.66-.28-.18-.64-.26-1.07-.26-.38,0-.74.08-1.08.23-.34.16-.63.38-.87.67-.25.29-.44.65-.59,1.06s-.22.89-.22,1.42v3.47h-.33v-5.18c0-.11,0-.25,0-.41s-.01-.32-.02-.49c0-.17-.01-.32-.02-.47,0-.15-.02-.28-.03-.38h.33c0,.1.02.23.02.38,0,.15,0,.31.01.49,0,.18.01.35.02.51,0,.17,0,.31,0,.44h.03c.1-.32.25-.61.44-.86Z"/></svg>